<svg preserveAspectRatio="none" overflow="visible" style="display: block;" width="16" height="16" viewBox="0 0 16 16" fill="none" xmlns="http://www.w3.org/2000/svg">
<g id="eye-slash">
<path id="Vector" d="M9.68667 6.31333L6.31333 9.68667C5.88 9.25333 5.61333 8.66 5.61333 8C5.61333 6.68 6.68 5.61333 8 5.61333C8.66 5.61333 9.25333 5.88 9.68667 6.31333Z" stroke="#CBD5E1" stroke-width="1.5" stroke-linecap="round" stroke-linejoin="round"/>
<path id="Vector_2" d="M11.88 3.84667C10.7133 2.96667 9.38 2.48667 8 2.48667C5.64667 2.48667 3.45333 3.87333 1.92667 6.27333C1.32667 7.21333 1.32667 8.79333 1.92667 9.73333C2.45333 10.56 3.06667 11.2733 3.73333 11.8467" stroke="#CBD5E1" stroke-width="1.5" stroke-linecap="round" stroke-linejoin="round"/>
<path id="Vector_3" d="M5.61333 13.02C6.37333 13.34 7.18 13.5133 8 13.5133C10.3533 13.5133 12.5467 12.1267 14.0733 9.72667C14.6733 8.78667 14.6733 7.20667 14.0733 6.26667C13.8533 5.92 13.6133 5.59333 13.3667 5.28667" stroke="#CBD5E1" stroke-width="1.5" stroke-linecap="round" stroke-linejoin="round"/>
<path id="Vector_4" d="M10.34 8.46667C10.1667 9.40667 9.4 10.1733 8.46 10.3467" stroke="#CBD5E1" stroke-width="1.5" stroke-linecap="round" stroke-linejoin="round"/>
<path id="Vector_5" d="M6.31333 9.68667L1.33333 14.6667" stroke="#CBD5E1" stroke-width="1.5" stroke-linecap="round" stroke-linejoin="round"/>
<path id="Vector_6" d="M14.6667 1.33333L9.68667 6.31333" stroke="#CBD5E1" stroke-width="1.5" stroke-linecap="round" stroke-linejoin="round"/>
<g id="Vector_7" opacity="0">
</g>
</g>
</svg>
