<svg preserveAspectRatio="none" overflow="visible" style="display: block;" width="16" height="16" viewBox="0 0 16 16" fill="none" xmlns="http://www.w3.org/2000/svg">
<g id="user">
<path id="Vector" d="M6.00749 7.33626C6.09318 7.40043 6.18234 7.46011 6.27409 7.51595C6.41162 7.5996 6.55519 7.67427 6.70475 7.73763C6.75457 7.75876 6.80511 7.77847 6.85612 7.7972L7.01042 7.84993C6.6976 7.7524 6.40437 7.60987 6.13835 7.43001L6.00749 7.33626ZM10.8493 6.3929C10.5705 6.8512 10.1845 7.23713 9.72624 7.51595C9.81776 7.46024 9.90637 7.40025 9.99186 7.33626C10.2489 7.14392 10.4773 6.91558 10.6696 6.65853C10.7336 6.57303 10.7936 6.48442 10.8493 6.3929ZM5.88151 7.23763C5.59307 6.99949 5.34529 6.71387 5.15006 6.3929C5.26154 6.57608 5.39033 6.74768 5.53385 6.9056C5.56995 6.94532 5.60724 6.98387 5.64518 7.02181C5.68279 7.05942 5.72106 7.09637 5.76042 7.13216L5.88151 7.23763ZM10.6696 2.67415C10.8617 2.93086 11.0182 3.21576 11.1305 3.52181L11.1833 3.67708C11.1508 3.57293 11.1132 3.47096 11.071 3.37142C11.0076 3.22186 10.9329 3.07828 10.8493 2.94076C10.8213 2.8948 10.7925 2.84948 10.7624 2.80501L10.6696 2.67415ZM5.42936 2.54818C5.39541 2.58928 5.36272 2.63144 5.33073 2.67415L5.23698 2.80501C5.26696 2.76068 5.29774 2.71694 5.32975 2.67415L5.42936 2.54818ZM9.72624 1.81673C10.0014 1.98412 10.2509 2.1899 10.4665 2.42708L10.571 2.54818C10.503 2.46584 10.4306 2.3873 10.3551 2.31185C10.3172 2.27391 10.2786 2.23661 10.2389 2.20052C10.081 2.05699 9.90942 1.92821 9.72624 1.81673ZM5.64421 2.31087L5.64518 2.31185L5.64421 2.31087ZM6.85514 1.53646H6.85612C6.6521 1.61131 6.45732 1.7053 6.27409 1.81673C6.18218 1.87266 6.09332 1.93312 6.00749 1.9974L5.88151 2.09603C6.16966 1.8581 6.49813 1.66755 6.85514 1.53646ZM7.49284 1.37142H7.49381H7.49284Z" fill="#292D32" stroke="white"/>
<path id="Vector_2" d="M13.7268 15.1667C13.4534 15.1667 13.2268 14.94 13.2268 14.6667C13.2268 12.3667 10.8801 10.5 8.0001 10.5C5.1201 10.5 2.77344 12.3667 2.77344 14.6667C2.77344 14.94 2.54677 15.1667 2.27344 15.1667C2.0001 15.1667 1.77344 14.94 1.77344 14.6667C1.77344 11.82 4.56677 9.5 8.0001 9.5C11.4334 9.5 14.2268 11.82 14.2268 14.6667C14.2268 14.94 14.0001 15.1667 13.7268 15.1667Z" fill="white"/>
<g id="Vector_3" opacity="0">
</g>
</g>
</svg>
